<?xml version="1.0" encoding="utf-8"?>
<!-- Generator: Adobe Illustrator 25.1.0, SVG Export Plug-In . SVG Version: 6.00 Build 0)  -->
<svg version="1.1" id="Capa_1" xmlns="http://www.w3.org/2000/svg" xmlns:xlink="http://www.w3.org/1999/xlink" x="0px" y="0px"
	 viewBox="0 0 554.3 512" style="enable-background:new 0 0 554.3 512;" xml:space="preserve">
<style type="text/css">
	.st0{fill:#030104;}
</style>
<g>
	<path d="M441.7,174.6l-11.1,1.5l16.5-16.5c-0.2,1.7,0,3.4,0.6,5c0.8,2.1,0.5,4.5-0.6,6.4C445.9,172.9,444,174.2,441.7,174.6z"/>
	<path d="M511.6,278.7l-6.2,31.4c-1.2,6.2-4.9,11.6-10.2,15c-5.4,3.4-11.8,4.5-18,3c-9.2-2.2-15.7-9.8-17.2-18.8l-29.5,1.3
		c-3.6,10.3-8.2,20.3-13.5,29.8l11.5,13.7c8.7-4.3,19.4-3.5,27.5,2.8c5.6,4.3,9.2,10.4,10.1,17.4c0.9,7-0.9,13.9-5.2,19.4l-5.2,6.8
		c-8.7,11.3-24.5,14-36,6c-7.6-5.3-11.8-14.2-11.3-23.1l-17.5-7.7c-11.3,12-24.2,22.4-38.2,30.9l4.6,28.3c5-1.2,10.4-0.8,15.2,1.4
		c5.8,2.6,10.1,7.4,12.2,13.5c4,11.7-2,24.5-13.7,29.2l-29.3,11.7c-5.8,2.3-12.5,2.2-18.2-0.4c-5.8-2.7-10.1-7.4-12.2-13.5
		c-3.1-8.9-0.3-18.5,6.5-24.7l-17.2-24c-25,6-51.4,6.7-76.7,2l-17.6,27.7c3.3,2.5,5.9,5.8,7.7,9.7c2.8,6,3.2,12.7,1.3,19
		c-0.3,7.2-3.5,13.4-8.8,17.1c-3.3,2.3-7.3,3.5-11.6,3.5c-2.8,0-5.8-0.5-8.7-1.6l-29-10.6c-13.5-4.9-20.6-19.9-16-33.5
		c2.3-6.6,7.1-12,13.6-15.1c3.9-1.9,8.2-2.8,12.5-2.6l3.6-32.3c-17.1-9.2-32.5-21-45.9-35.1l-26.1,10.7c1.4,9.1-2.5,18.4-10.7,23.8
		c-10.9,7.1-25.9,4.1-33.5-6.8L45.6,391c-7.4-10.7-5.4-25.3,4.6-33.2c5.2-4.1,11.6-5.9,18.1-5c3.5,0.5,6.7,1.6,9.6,3.4l17.9-20.2
		c-2.3-4.4-4.5-9-6.5-13.7c-1.6-3.8,0.1-8.2,3.9-9.9c3.8-1.6,8.2,0.1,9.9,3.9c2.2,5.2,4.7,10.3,7.4,15.2c2.2,3.9,1.6,8.7-1.3,12
		l-25,28.2c-1.5,1.7-3.7,2.6-5.9,2.5c-2.2-0.1-4.3-1.2-5.7-3c-1.5-2-3.7-3.3-6.2-3.6c-2.5-0.3-4.9,0.4-6.8,1.9
		c-3.8,3-4.5,8.6-1.6,12.8l9.1,13.1c3,4.3,8.7,5.5,12.8,2.8c4-2.6,5.3-7.8,3.1-12c-1-1.9-1.2-4.1-0.5-6.1c0.7-2,2.3-3.6,4.2-4.4
		l35.5-14.5c4-1.7,8.7-0.6,11.7,2.6c13.4,14.6,29.1,26.6,46.7,35.7c3.8,2,6.1,6.2,5.6,10.5l-4.8,43.5c-0.2,2.3-1.5,4.3-3.5,5.6
		c-2,1.2-4.4,1.5-6.5,0.7l-0.7-0.2c-3-1.1-6.5-0.9-9.4,0.5c-2.8,1.3-4.9,3.6-5.8,6.4c-2,5.8,1.1,12.3,6.9,14.5l29,10.6
		c2.7,1,5,0.9,6.5-0.1c1.5-1.1,2.4-3.2,2.4-6.1c0-0.9,0.2-1.8,0.5-2.6c1-2.9,0.9-6-0.4-8.8c-1.3-2.8-3.6-4.9-6.5-5.9l-0.8-0.3
		c-2.1-0.8-3.8-2.5-4.5-4.6c-0.7-2.2-0.4-4.5,0.8-6.5l23.6-37.1c2.3-3.6,6.7-5.5,10.9-4.6c11.1,2.2,22.4,3.4,33.8,3.4
		c14.3,0,28.5-1.8,42.3-5.4c4.2-1.1,8.7,0.5,11.2,4l23.6,33.1c1.3,1.9,1.7,4.3,1.1,6.5c-0.6,2.2-2.3,4-4.4,4.9l-0.8,0.3
		c-4.2,1.7-6.4,6.3-5,10.3c0.7,2.1,2.2,3.8,4.3,4.7c2,0.9,4.3,1,6.3,0.2l29.3-11.7c4.2-1.7,6.4-6.3,5-10.3c-0.7-2.1-2.2-3.8-4.3-4.7
		c-2-0.9-4.3-1-6.3-0.2l-5.7,2.3c-2.1,0.8-4.5,0.7-6.5-0.4c-2-1.1-3.4-3.1-3.7-5.3l-6.6-40.4c-0.7-4.2,1.3-8.6,5.1-10.7
		c14.7-8.6,28.1-19.4,39.6-32.1c3-3.3,7.8-4.4,12-2.6l25.9,11.4c3.6,1.6,5.3,5.6,4.1,9.3c-1.6,4.7,0.2,10,4.3,12.9
		c4.8,3.3,11.8,2.1,15.6-2.8l5.2-6.8c1.8-2.4,2.6-5.3,2.2-8.3c-0.4-3-1.9-5.6-4.3-7.5c-4.4-3.4-10.5-3-14.6,0.8
		c-1.5,1.4-3.5,2.2-5.6,2.1c-2.1-0.1-4-1.1-5.3-2.7l-18-21.3c-2.9-3.4-3.2-8.3-1-12.1c6.1-10.3,11.1-21.3,14.8-32.6
		c1.4-4.1,5.2-7,9.5-7.2l40.6-1.8c2.3-0.1,4.5,0.8,6,2.6c1.5,1.8,2.1,4.1,1.7,6.3l-0.2,0.8c-0.9,4.4,1.8,8.8,5.9,9.8
		c2.2,0.5,4.4,0.2,6.3-1c1.9-1.2,3.1-3.1,3.6-5.2l6.2-31.4c0.8-4.4-2-8.6-6.4-9.5c-2.1-0.4-4.3,0-6,1.2c-1.8,1.2-3,3-3.4,5.1
		l-1.2,6.1c-0.4,2.2-1.9,4.2-3.9,5.2c-2,1.1-4.4,1.1-6.5,0.2l-37.5-16.4c-4-1.7-6.5-5.8-6.3-10.1c0.1-2.7,0.2-5.2,0.2-7.8
		c0-14.4-1.8-28.6-5.4-42.5c-0.2-0.8-0.4-1.6-0.7-2.4c-1.2-4.3,0.5-8.9,4.2-11.5l20-13.6c1.5-1,3.3-1.5,5.1-1.2
		c0.2,0,0.5,0.1,0.7,0.1c2,0.4,3.8,1.7,4.8,3.5c2.9,4.8,9,6.7,14.1,4.5c5.4-2.4,8-9,5.9-14.7l-5.1-13.7l-0.4-1.2
		c-1.9-5.1-6.9-8.2-11.9-7.7l12.5-12.5c4.5,2.2,8.4,5.6,11.2,10.1c0.9,1.5,1.7,3.1,2.4,4.9l5.5,14.9c5,13.4-1.2,28.2-14,33.8
		c-9.5,4.1-20.4,2.2-27.9-4.4l-11.8,8c3.8,14.9,5.8,30.2,5.8,45.7c0,1.7,0,3.5-0.1,5.3l26.3,11.5c1.6-4.8,4.7-8.8,9-11.7
		c5.1-3.4,11.3-4.7,17.3-3.5C505.8,254.1,514,266.2,511.6,278.7z"/>
	<path d="M48.4,271.9l28.2,6.5c0.6,3.9,1.4,7.9,2.3,11.9c0.8,3.5,3.9,5.9,7.3,5.9c0.5,0,1.1-0.1,1.7-0.2c4-0.9,6.6-4.9,5.7-9
		c-1-4.6-1.9-9.2-2.5-13.7c-0.6-4.3-3.8-7.8-8-8.8l-39.9-9.2c-2.2-0.5-4.6,0-6.3,1.4c-1.8,1.4-2.8,3.6-2.9,5.8l0,4.7
		c0,5.2-4.3,9.5-9.6,9.5c-2.5,0-4.8-1-6.6-2.7c-1.8-1.8-2.7-4.1-2.7-6.6l0.3-29c0-2.7,1.2-5.3,3.1-7.1c1.8-1.8,4.1-2.7,6.6-2.6
		c5.1,0.1,9.2,4.4,9.2,9.5c0,2.3,1,4.5,2.8,5.9c1.8,1.4,4.2,2,6.4,1.4l39.6-9.3c4.2-1,7.4-4.5,8-8.8c2.9-21.7,10-42.3,20.9-61.2
		c2.2-3.8,1.8-8.7-1.1-12l-18.9-22.2c-1.5-1.7-3.6-2.7-5.9-2.6c-2.3,0.1-4.4,1.2-5.8,3l-1.6,2.2c-1.2,1.6-3,2.6-5,2.9
		c-2,0.2-4-0.4-5.6-1.7c-3-2.5-3.4-7.1-0.9-10.4l12.6-16.6c2.4-3.2,7.1-3.9,10.3-1.4c3,2.3,3.8,6.6,1.8,9.8
		c-1.2,1.9-1.5,4.1-0.8,6.2c0.6,2.1,2.2,3.8,4.2,4.7l26.4,11.4c4.1,1.8,8.9,0.7,11.9-2.6c12-13.2,26-24.3,41.4-33.1
		c3.7-2.1,5.8-6.4,5.2-10.7l-6.1-40.5c-0.3-2.3-1.7-4.2-3.7-5.4c-2-1.1-4.4-1.3-6.5-0.5l-5.8,2.2c-2.1,0.8-4.3,0.7-6.3-0.2
		c-2-1-3.5-2.6-4.2-4.8c-1.3-4,1-8.6,5.2-10.2l29.4-11.3c2.1-0.8,4.3-0.7,6.3,0.2c2,1,3.5,2.6,4.2,4.8c1.3,4-1,8.6-5.2,10.2
		l-0.8,0.3c-2.2,0.8-3.8,2.6-4.5,4.8c-0.7,2.2-0.3,4.6,1,6.5l23.2,33.4c2.5,3.5,6.9,5.2,11.1,4.2c13.1-3.2,26.6-4.8,40.2-4.8h0
		c4.4,0,8.4-2.8,9.9-6.9l7.7-21.5c0.7-1.9,0.6-4.1-0.4-5.9c-0.9-1.8-2.5-3.2-4.5-3.8c-5.6-1.7-9.1-7.2-8.5-13c0.4-3.1,2-5.9,4.6-7.9
		c2.7-2.1,6.2-3.1,9.5-2.7l10.5,1.3c6.8,0.9,11.8,6.9,11.1,13.5c-0.6,5.1-4.1,9.2-9,10.5c-3.6,0.9-6,4.4-5.6,8.1l2.7,23.3
		c0.5,4.4,3.8,8.1,8.2,9c16.8,3.7,32.9,9.9,47.8,18.6c3.7,2.2,8.5,1.8,11.8-0.9l31.8-25.8c1.8-1.4,2.8-3.6,2.8-5.9
		c0-2.3-1.1-4.4-2.8-5.8l-4.8-3.8c-1.7-1.4-2.8-3.4-3-5.6c-0.2-2.2,0.5-4.4,2-6.1c2.8-3.2,7.9-3.5,11.4-0.7l24.7,19.6
		c1.7,1.4,2.8,3.4,3,5.6c0.2,2.2-0.5,4.4-2,6.1c-2.8,3.2-7.9,3.5-11.4,0.7l-0.7-0.5c-1.8-1.4-4.2-2-6.4-1.4
		c-2.2,0.5-4.1,2.1-5.1,4.2l-17,37c-1.8,3.9-1,8.6,2,11.7c1.1,1.1,2.1,2.2,3.4,3.6c2.8,3.1,7.6,3.3,10.6,0.4
		c3.1-2.8,3.2-7.6,0.4-10.6c-0.5-0.6-1-1.1-1.5-1.6l12.4-26.8c8.7,2.8,18.4,0.5,24.6-6.6c4.2-4.8,6.2-11,5.6-17.3
		c-0.6-6.3-3.7-12.1-8.6-16l-24.7-19.6c-9.9-7.8-24-6.7-32.1,2.6c-4.2,4.8-6.2,11-5.6,17.3c0.5,5.2,2.7,10.1,6.3,13.9l-22.3,18.1
		c-14.5-8.1-30.1-14.1-46.2-18l-1.7-14.4c7.6-4.2,13-12,14-20.9c1.6-14.7-9.2-28.1-24.2-30l-10.5-1.3c-7.3-0.9-14.8,1.2-20.7,5.7
		c-5.8,4.5-9.4,10.9-10.2,18c-1.2,10.3,3.5,20.2,11.8,25.8l-4.4,12.2c-12.7,0.2-25.2,1.7-37.5,4.5l-16.8-24.2
		c6.8-6,9.8-15.6,6.8-24.6c-2-6.1-6.3-10.9-12.1-13.6c-5.7-2.7-12.3-2.9-18.2-0.7l-29.4,11.3c-11.8,4.5-17.9,17.2-14,29
		c2,6.1,6.3,10.9,12.1,13.6c4.7,2.2,10.1,2.8,15.2,1.6l4.3,28.4c-14.8,8.7-28.3,19.5-40.2,32.1l-17-7.3c1.4-8-1.7-16.5-8.5-21.7
		c-4.8-3.6-10.6-5.1-16.6-4.3c-5.9,0.8-11.2,3.9-14.8,8.7l-12.6,16.6c-7.4,9.7-5.9,23.4,3.3,31c4.8,4,10.7,5.8,16.9,5.1
		c3.9-0.4,7.5-1.9,10.7-4.2l11.4,13.4c-10.5,19-17.5,39.4-20.8,60.8L47.4,229c-3.5-8.8-12.1-15.2-22.1-15.5
		c-6.5-0.2-12.7,2.3-17.4,6.8c-4.8,4.7-7.6,11.1-7.7,17.8l-0.3,29c-0.1,6.5,2.4,12.7,7,17.3c4.6,4.6,10.7,7.2,17.3,7.2
		C36.2,291.7,46.2,283.2,48.4,271.9L48.4,271.9z"/>
	<path d="M220.4,230.9c3.7-1.9,5.1-6.5,3.1-10.2c-1.9-3.7-6.5-5.1-10.2-3.1c-18,9.5-38.4,7-48.7-6c-5.7-7.3-7.7-16.9-5.6-27.2
		c2.3-10.7,8.7-20.8,18.2-28.2c9.5-7.5,20.7-11.4,31.7-11.1c10.5,0.3,19.4,4.5,25.1,11.8c8.6,10.9,8.5,27.3-0.3,41.6
		c-2.2,3.5-1.1,8.2,2.5,10.3c3.5,2.2,8.2,1.1,10.3-2.5c12.1-19.8,11.8-42.8-0.7-58.8c-8.6-10.8-21.5-17.1-36.5-17.5
		c-14.5-0.4-29.2,4.7-41.4,14.3c-12.2,9.6-20.6,22.8-23.6,37c-3.1,14.7-0.1,28.7,8.5,39.6c9,11.4,23.1,17.4,38.3,17.4
		C200.8,238.4,210.9,235.9,220.4,230.9L220.4,230.9z"/>
	<path d="M336.5,135.3l29.7,29.9c0-0.6,0.1-1.1,0.1-1.7C366.2,148.7,353.1,136.5,336.5,135.3z M301.6,163.5
		c0,15.6,14.5,28.2,32.3,28.2c0.8,0,1.5,0,2.3-0.1l-33.9-34.1C301.8,159.5,301.6,161.5,301.6,163.5z"/>
	<path d="M244.4,258c-19.1,0-34.6,15.5-34.6,34.6c0,19.1,15.5,34.6,34.6,34.6c19.1,0,34.6-15.5,34.6-34.6
		C279,273.6,263.5,258,244.4,258z M244.4,312.3c-10.8,0-19.6-8.8-19.6-19.6s8.8-19.6,19.6-19.6c10.8,0,19.6,8.8,19.6,19.6
		S255.2,312.3,244.4,312.3z"/>
	<path d="M350.1,251.6c-14.8,0-26.9,12.1-26.9,26.9c0,14.9,12.1,26.9,26.9,26.9c14.8,0,26.9-12.1,26.9-26.9
		C377,263.7,364.9,251.6,350.1,251.6z M350,290.4c-6.5,0-11.9-5.3-11.9-11.9s5.3-11.9,11.9-11.9c6.6,0,11.9,5.3,11.9,11.9
		S356.6,290.4,350,290.4z"/>
	<path d="M278.4,346.9c-14.5,0-26.4,11.8-26.4,26.4c0,14.5,11.8,26.4,26.4,26.4s26.4-11.8,26.4-26.4
		C304.8,358.7,292.9,346.9,278.4,346.9z M278.4,384.6c-6.3,0-11.4-5.1-11.4-11.4c0-6.3,5.1-11.4,11.4-11.4s11.4,5.1,11.4,11.4
		C289.7,379.5,284.6,384.6,278.4,384.6z"/>
	<path d="M160.3,301c-15,0-27.2,12.2-27.2,27.2c0,15,12.2,27.2,27.2,27.2c15,0,27.2-12.2,27.2-27.2C187.4,313.2,175.2,301,160.3,301
		z M160.3,340.3c-6.7,0-12.2-5.5-12.2-12.2c0-6.7,5.5-12.1,12.2-12.1s12.1,5.5,12.1,12.1C172.4,334.8,167,340.3,160.3,340.3z"/>
	<path d="M313.3,234.1c0-4.2-3.4-7.5-7.5-7.5h-6.6c-4.2,0-7.5,3.4-7.5,7.5s3.4,7.5,7.5,7.5h6.6C309.9,241.6,313.3,238.2,313.3,234.1
		z"/>
	<path d="M210.4,373h6.8c4.2,0,7.5-3.4,7.5-7.5s-3.4-7.5-7.5-7.5h-6.8c-4.2,0-7.5,3.4-7.5,7.5S206.3,373,210.4,373z"/>
	<path d="M147.2,263.5c4.2,0,7.5-3.4,7.5-7.5c0-4.2-3.4-7.5-7.5-7.5h-6.6c-4.2,0-7.5,3.4-7.5,7.5c0,4.2,3.4,7.5,7.5,7.5H147.2z"/>
	<path d="M275.5,130.6l1.4,1.4h-5.4c-4.2,0-7.5-3.4-7.5-7.5c0-4.2,3.4-7.5,7.5-7.5h9.2c1,0,2,0.2,2.9,0.6l-8.1,8.1
		C274.2,127,274.2,129.3,275.5,130.6z"/>
	<path d="M330.6,333.5c-4.2,0-7.5,3.4-7.5,7.5c0,4.2,3.4,7.5,7.5,7.5h10.1c4.2,0,7.5-3.4,7.5-7.5c0-4.2-3.4-7.5-7.5-7.5H330.6z"/>
</g>
<g>
	<g>
		<path class="st0" d="M548.9,52.8l-23.3-23.2c-3.5-3.5-8.1-5.4-13.1-5.4s-9.6,1.9-13.1,5.4L375.6,153.4l-61.2-61.7
			c-0.1-0.1-0.1-0.1-0.2-0.2c-3.4-3.4-8-5.2-12.8-5.2h0c-1.2,0-2.3,0.1-3.4,0.3c-3.6,0.7-7,2.4-9.6,5.1l-23.3,23.3
			c-7.2,7.2-7.2,18.9,0,26.1l97.6,98.2c3.6,3.6,8.3,5.3,13,5.3c4.7,0,9.5-1.8,13.1-5.4l31.8-31.8l28.7-28.7l20.4-20.4l11.3-11.3
			l68.1-68.1c3.5-3.5,5.5-8.1,5.5-13.1C554.3,61,552.4,56.3,548.9,52.8z M538.3,68.5l-91.1,91.1l-16.5,16.5L378,228.7
			c-1.4,1.4-3.6,1.4-5,0.1l-36.9-37.1l-33.9-34.1L276.9,132l-1.4-1.4c-1.3-1.3-1.3-3.6,0-4.9l8.1-8.1l15.2-15.2c0.9-0.9,1.9-1,2.5-1
			h0c0.5,0,1.6,0.1,2.4,1l32.8,33l29.7,29.9l9.4,9.5L510.1,40.2c0.9-0.9,1.9-1,2.5-1c0.5,0,1.6,0.1,2.5,1l23.3,23.3
			c0.9,0.9,1,1.9,1,2.5C539.3,66.5,539.2,67.5,538.3,68.5z"/>
	</g>
</g>
</svg>
