<?xml version="1.0" encoding="utf-8"?>
<!-- Generator: Adobe Illustrator 25.1.0, SVG Export Plug-In . SVG Version: 6.00 Build 0)  -->
<svg version="1.1" id="Layer_1" xmlns="http://www.w3.org/2000/svg" xmlns:xlink="http://www.w3.org/1999/xlink" x="0px" y="0px"
	 viewBox="0 0 577.1 620.6" style="enable-background:new 0 0 577.1 620.6;" xml:space="preserve">
<g>
	<g>
		<path d="M386.4,330l50.7-50.7c6.9-6.9,10.7-16.1,10.7-25.8c0-9.7-3.8-18.9-10.7-25.8l-46.2-46.2c-6.9-6.9-16.1-10.7-25.8-10.7
			c-8.3,0-16.2,2.8-22.6,7.8c-1.1,0.9-2.2,1.8-3.2,2.9l-25,25L290.9,230l-2.3,2.3l-2.8-2.8l-47.9-47.9c-3.4-3.4-7.4-6.1-11.8-7.9
			c-4.4-1.8-9.1-2.8-14-2.8c-0.5,0-1,0-1.5,0c-9.2,0.4-17.7,4.1-24.3,10.6l-3.9,3.9l-8,8l-28.2,28.2l-6.1,6.1
			c-0.5,0.5-1.1,1.1-1.6,1.7c-5.9,6.7-9.1,15.1-9.1,24.1c0,0.2,0,0.5,0,0.7c0,1.1,0.1,2.3,0.2,3.4c0.9,8.2,4.5,15.8,10.5,21.7
			l3.1,3.1l47.6,47.6l-23.8,23.8l-22,21.9l-5,5c-6.3,6.3-10,14.5-10.6,23.2c-0.1,0.8-0.1,1.7-0.1,2.6c0,9.7,3.8,18.9,10.7,25.8
			l46.2,46.2c6.9,6.9,16,10.7,25.8,10.7c9.7,0,18.9-3.8,25.8-10.7l50.7-50.7l49.2,49.3c3.6,3.6,7.9,6.5,12.5,8.4
			c4.6,1.9,9.6,2.9,14.8,2.9c10.3,0,20-4,27.2-11.3l43.3-43.3c7.3-7.3,11.3-17,11.3-27.2c0-10.3-4-20-11.3-27.3L386.4,330z
			 M414.4,412.5l-43.3,43.3c-1.6,1.6-3.7,2.5-6,2.5s-4.4-0.9-6-2.5l-54-54l-2.4-2.4l-14.2-14.2L270,403.9l-53.3,53.3
			c-1.6,1.6-3.5,1.9-4.5,1.9c-1,0-2.9-0.2-4.5-1.9L161.4,411c-1.6-1.6-1.9-3.5-1.9-4.5c0-0.6,0.1-1.6,0.5-2.6c0.3-0.7,0.7-1.3,1.3-2
			l26.3-26.2l32.6-32.6l13.2-13.2l-15-15l-32.6-32.6L161.4,258c-0.1-0.1-0.3-0.3-0.4-0.4c-1-1.2-1.4-2.5-1.5-3.4c0-0.3,0-0.5,0-0.7
			c0-1,0.2-2.9,1.9-4.5l21-21l6.3-6.3l18.9-18.9c1-1,2.1-1.5,3-1.7c0.6-0.2,1.1-0.2,1.5-0.2c1,0,2.9,0.2,4.5,1.9l4.3,4.3l22.3,22.3
			l10.3,10.3l17.9,17.9l17.2,17.2l6.8-6.8l18.9-19l2.5-2.5l25.7-25.7l18.1-18.1c1.6-1.6,3.5-1.9,4.5-1.9c1,0,2.9,0.2,4.5,1.9
			l46.2,46.2c1.6,1.6,1.9,3.5,1.9,4.5c0,1-0.2,2.9-1.9,4.5l-72,72l70.6,70.5c1.6,1.6,2.5,3.7,2.5,6S416,410.9,414.4,412.5z"/>
	</g>
</g>
<path d="M342.6,54.5c-9.2-1.8-18.6-3.2-28.2-4c-8.5-0.8-17-1.2-25.7-1.2c-2.3,0-4.6,0-6.9,0.1c-9.5,0.2-18.9,0.9-28.2,2.1
	c-14.7,1.8-29.1,4.8-43,8.9c-9.6,2.8-19,6.1-28.2,9.8c-21,8.6-40.8,19.7-58.9,32.9c-9.9,7.2-19.3,15.1-28.2,23.5
	c-20.4,19.5-38,42-51.9,66.8c-5.1,9.1-9.7,18.5-13.7,28.2c-1.1,2.6-2.1,5.2-3.1,7.8c-3.1,8.1-5.9,16.4-8.3,24.8
	c-0.4,1.4-0.8,2.8-1.2,4.3c-2.1,7.8-3.8,15.8-5.2,23.9c-0.6,3.3-1.1,6.7-1.5,10.1c-1,7.4-1.7,14.9-2.1,22.4C8.1,320,8,325,8,330
	c0,4.4,0.1,8.8,0.3,13.2c0.5,11,1.7,21.9,3.4,32.6c1.6,9.5,3.6,18.9,6.1,28c0,0.1,0,0.1,0,0.2c32.5,119,141.6,206.7,270.8,206.7
	c154.8,0,280.7-125.9,280.7-280.7C569.3,193.7,471.6,79.7,342.6,54.5z M288.6,580.6c-112.4,0-207.8-74.5-239.5-176.7
	c-2.9-9.2-5.2-18.6-7-28.2c-2-10.6-3.3-21.5-3.9-32.6c-0.2-4.4-0.3-8.7-0.3-13.2c0-5.1,0.2-10.1,0.5-15c0.7-11.1,2-21.9,4.1-32.6
	c1.6-8.4,3.7-16.7,6.1-24.8c0.3-1.1,0.7-2.3,1.1-3.4c2.7-8.5,5.8-16.7,9.4-24.8c1.1-2.6,2.3-5.2,3.6-7.8c4.7-9.8,10-19.2,15.9-28.2
	c5.1-7.9,10.7-15.5,16.7-22.7c8.6-10.4,18-20.2,28.2-29.1c17.6-15.5,37.4-28.5,58.9-38.6c9.1-4.3,18.5-8,28.2-11.2
	c13.8-4.5,28.2-7.9,43-10c9.2-1.3,18.7-2.1,28.2-2.3c2.3-0.1,4.6-0.1,6.9-0.1c8.7,0,17.3,0.5,25.7,1.3c9.6,1,19,2.5,28.2,4.5
	C454.9,110,539.2,210.3,539.2,330C539.2,468.2,426.8,580.6,288.6,580.6z"/>
</svg>
