<?xml version="1.0" encoding="utf-8"?>
<!-- Generator: Adobe Illustrator 25.1.0, SVG Export Plug-In . SVG Version: 6.00 Build 0)  -->
<svg version="1.1" id="Layer_1" xmlns="http://www.w3.org/2000/svg" xmlns:xlink="http://www.w3.org/1999/xlink" x="0px" y="0px"
	 viewBox="0 0 577.1 620.6" style="enable-background:new 0 0 577.1 620.6;" xml:space="preserve">
<g>
	<g>
		<path d="M420.5,419.2l1.5,1.5l1.2-1.2C422.3,419.3,421.4,419.2,420.5,419.2z M377.8,12.3c-6.7-7.6-16.1-12-26.4-12.3
			c-0.5,0-1,0-1.6,0c-0.5,0-1.1,0-1.6,0c-10.4,0.3-19.8,4.7-26.4,12.3c-5.4,6.1-11.4,17.2-9.6,35.2l6.9,68.5v271.9
			c4.6-5.5,9.6-10.7,15-15.5V123.2h31.3V238c0,4.1,3.4,7.5,7.5,7.5c4.1,0,7.5-3.4,7.5-7.5V116l6.9-68.5
			C389.2,29.5,383.1,18.5,377.8,12.3z M372.4,46.1l-6.2,62.1h-32.8l-6.2-62.1c-1-10,1-18.3,5.9-23.9c3.9-4.4,9.4-7,15.6-7.2
			c0.7,0,1.5,0,2.2,0c6.2,0.2,11.7,2.8,15.6,7.2C371.4,27.8,373.4,36,372.4,46.1z M373,265.5c-4.1,0-7.5,3.4-7.5,7.5v78.9
			c4.9-2.3,9.9-4.3,15-6V273C380.5,268.9,377.1,265.5,373,265.5z M274,440c0-2.4,1.5-4.4,3.6-5.3c0.7-0.3,1.4-0.5,2.2-0.5h14.5
			c0.2-0.6,0.4-1.2,0.6-1.8c1.4-4.5,3.1-8.9,5-13.2h-20.1c-11.5,0-20.8,9.3-20.8,20.8v51.3c0,10.8,8.3,19.7,18.9,20.7
			c0.6,0.1,1.2,0.1,1.9,0.1h14.8c-1.5-4.9-2.8-9.9-3.7-15h-11.1c-3.1,0-5.8-2.7-5.8-5.8V440z"/>
		<path d="M474,472.7l27-27c3.7-3.7,5.7-8.5,5.7-13.7c0-5.2-2-10.1-5.7-13.7l-24.6-24.6c-3.7-3.7-8.5-5.7-13.7-5.7
			c-4.4,0-8.6,1.5-12,4.2c-0.6,0.5-1.2,1-1.7,1.5L435.7,407l-12.5,12.5l-1.2,1.2l-1.5-1.5L395,393.7c-1.8-1.8-4-3.3-6.3-4.2
			c-2.3-1-4.8-1.5-7.4-1.5c-0.3,0-0.5,0-0.8,0c-4.9,0.2-9.4,2.2-12.9,5.7l-2.1,2.1l-4.3,4.3l-15,15l-3.2,3.2
			c-0.3,0.3-0.6,0.6-0.8,0.9c-3.1,3.5-4.8,8.1-4.8,12.8c0,0.1,0,0.2,0,0.4c0,0.6,0,1.2,0.1,1.8c0.5,4.4,2.4,8.4,5.6,11.5l1.7,1.7
			l25.3,25.3l-12.7,12.7L345.6,497l-2.6,2.6c-3.3,3.3-5.3,7.7-5.6,12.4c0,0.5-0.1,0.9-0.1,1.4c0,5.2,2,10,5.7,13.7l24.6,24.6
			c3.7,3.7,8.5,5.7,13.7,5.7c5.2,0,10.1-2,13.7-5.7l27-27l26.2,26.2c1.9,1.9,4.2,3.4,6.7,4.5c2.5,1,5.1,1.5,7.8,1.5
			c5.5,0,10.6-2.1,14.5-6l23-23c3.9-3.9,6-9,6-14.5c0-5.5-2.1-10.6-6-14.5L474,472.7z M488.9,516.5l-23,23c-0.8,0.9-2,1.3-3.2,1.3
			s-2.3-0.5-3.2-1.3l-28.7-28.7l-1.3-1.3L422,502l-9.9,10l-28.3,28.4c-0.9,0.9-1.9,1-2.4,1c-0.5,0-1.5-0.1-2.4-1l-24.6-24.6
			c-0.9-0.9-1-1.9-1-2.4c0-0.3,0.1-0.8,0.3-1.4c0.1-0.3,0.4-0.7,0.7-1l14-14l17.3-17.3l7-7l-8-8l-17.3-17.3l-13-13
			c-0.1-0.1-0.1-0.2-0.2-0.2c-0.5-0.6-0.7-1.3-0.8-1.8c0-0.1,0-0.3,0-0.4c0-0.5,0.1-1.5,1-2.4l11.2-11.2l3.4-3.4l10-10
			c0.5-0.5,1.1-0.8,1.6-0.9c0.3-0.1,0.6-0.1,0.8-0.1c0.5,0,1.5,0.1,2.4,1l2.3,2.3l11.9,11.9l5.5,5.5l9.5,9.5l9.1,9.1l3.6-3.6
			l10.1-10.1l1.3-1.3l13.7-13.7l9.6-9.6c0.9-0.9,1.9-1,2.4-1c0.5,0,1.5,0.1,2.4,1l24.6,24.6c0.9,0.9,1,1.9,1,2.4
			c0,0.5-0.1,1.5-1,2.4l-38.3,38.3l37.5,37.5c0.8,0.8,1.3,2,1.3,3.2S489.8,515.7,488.9,516.5z"/>
		<path d="M237.1,0H63.9c-8.5,0-15.4,6.9-15.4,15.4v32c0,8.4,6.8,15.3,15.2,15.4V239c0,4.1,3.4,7.5,7.5,7.5c4.1,0,7.5-3.4,7.5-7.5
			V62.9h143.6v33.5h-89.5c-14.2,0-25.7,11.5-25.7,25.7v270.3c0,14.2,11.5,25.7,25.7,25.7h89.5v7.1c0,39.6-32.2,71.8-71.8,71.8
			c-39.6,0-71.8-32.2-71.8-71.8V274c0-4.1-3.4-7.5-7.5-7.5s-7.5,3.4-7.5,7.5v151.1c0,47.9,38.9,86.8,86.8,86.8
			c47.9,0,86.8-38.9,86.8-86.8V62.8c8.4-0.1,15.2-7,15.2-15.4v-32C252.5,6.9,245.6,0,237.1,0z M222.3,403.1h-89.5
			c-5.9,0-10.7-4.8-10.7-10.7V122.1c0-5.9,4.8-10.7,10.7-10.7h89.5V403.1z M237.5,47.4c0,0.2-0.2,0.4-0.4,0.4H63.9
			c-0.2,0-0.4-0.2-0.4-0.4v-32c0-0.2,0.2-0.4,0.4-0.4h173.2c0.2,0,0.4,0.2,0.4,0.4V47.4z"/>
		<path d="M189.7,234.8h-34.1c-4.1,0-7.5,3.4-7.5,7.5v34.1c0,4.1,3.4,7.5,7.5,7.5h34.1c4.1,0,7.5-3.4,7.5-7.5v-34.1
			C197.2,238.1,193.9,234.8,189.7,234.8z M182.2,268.8h-19.1v-19.1h19.1V268.8z"/>
		<path d="M189.7,315.6h-34.1c-4.1,0-7.5,3.4-7.5,7.5v34.1c0,4.1,3.4,7.5,7.5,7.5h34.1c4.1,0,7.5-3.4,7.5-7.5v-34.1
			C197.2,319,193.9,315.6,189.7,315.6z M182.2,349.7h-19.1v-19.1h19.1V349.7z"/>
		<path d="M155.6,163.5h34.1c4.1,0,7.5-3.4,7.5-7.5s-3.4-7.5-7.5-7.5h-34.1c-4.1,0-7.5,3.4-7.5,7.5S151.5,163.5,155.6,163.5
			L155.6,163.5z"/>
		<path d="M155.6,198.2h34.1c4.1,0,7.5-3.4,7.5-7.5s-3.4-7.5-7.5-7.5h-34.1c-4.1,0-7.5,3.4-7.5,7.5S151.5,198.2,155.6,198.2
			L155.6,198.2z"/>
	</g>
</g>
<path d="M450.7,326.1c-4.9-1-9.9-1.7-15-2.1c-4.5-0.4-9.1-0.6-13.7-0.6c-1.2,0-2.4,0-3.6,0c-5.1,0.1-10.1,0.5-15,1.1
	c-7.8,1-15.5,2.6-22.9,4.7c-5.1,1.5-10.1,3.2-15,5.2c-11.2,4.6-21.7,10.5-31.3,17.5c-5.3,3.8-10.3,8-15,12.5
	c-10.9,10.4-20.2,22.3-27.6,35.5c-2.7,4.8-5.2,9.8-7.3,15c-0.6,1.4-1.1,2.8-1.7,4.1c-1.7,4.3-3.1,8.7-4.4,13.2
	c-0.2,0.8-0.4,1.5-0.6,2.3c-1.1,4.2-2,8.4-2.8,12.7c-0.3,1.8-0.6,3.6-0.8,5.4c-0.5,3.9-0.9,7.9-1.1,11.9c-0.1,2.7-0.2,5.3-0.2,8
	c0,2.4,0,4.7,0.2,7c0.3,5.9,0.9,11.7,1.8,17.3c0.8,5.1,1.9,10,3.3,14.9c0,0,0,0.1,0,0.1c17.3,63.3,75.3,110,144.1,110
	c82.3,0,149.3-67,149.3-149.3C571.3,400.1,519.3,339.5,450.7,326.1z M422,606c-59.8,0-110.6-39.6-127.4-94c-1.5-4.9-2.8-9.9-3.7-15
	c-1-5.7-1.7-11.4-2-17.3c-0.1-2.3-0.2-4.6-0.2-7c0-2.7,0.1-5.3,0.2-8c0.3-5.9,1.1-11.7,2.2-17.3c0.9-4.5,2-8.9,3.3-13.2
	c0.2-0.6,0.4-1.2,0.6-1.8c1.4-4.5,3.1-8.9,5-13.2c0.6-1.4,1.2-2.8,1.9-4.1c2.5-5.2,5.3-10.2,8.5-15c2.7-4.2,5.7-8.2,8.9-12.1
	c4.6-5.5,9.6-10.7,15-15.5c9.4-8.2,19.9-15.2,31.3-20.6c4.9-2.3,9.9-4.3,15-6c7.4-2.4,15-4.2,22.9-5.3c4.9-0.7,9.9-1.1,15-1.2
	c1.2,0,2.4,0,3.6,0c4.6,0,9.2,0.2,13.7,0.7c5.1,0.5,10.1,1.3,15,2.4c59.8,13.2,104.7,66.5,104.7,130.2
	C555.3,546.2,495.5,606,422,606z"/>
</svg>
