<?xml version="1.0" encoding="utf-8"?>
<!-- Generator: Adobe Illustrator 25.1.0, SVG Export Plug-In . SVG Version: 6.00 Build 0)  -->
<svg version="1.1" id="Capa_1" xmlns="http://www.w3.org/2000/svg" xmlns:xlink="http://www.w3.org/1999/xlink" x="0px" y="0px"
	 viewBox="0 0 577.1 620.6" style="enable-background:new 0 0 577.1 620.6;" xml:space="preserve">
<g>
	<g>
		<path d="M345.6,497l-2.6,2.6c-3.3,3.3-5.3,7.7-5.6,12.4h16.2c0.1-0.3,0.4-0.7,0.7-1l14-14H345.6z M422,502l-9.9,10H423
			c2.7,0,5.3-0.4,7.8-1.1L422,502z M449,393.7L435.7,407v22.6l15-15v-22.4C450.1,392.6,449.5,393.1,449,393.7z M443.2,149.7
			c-4.1,0-7.5,3.4-7.5,7.5V340c5.1,0.5,10.1,1.3,15,2.4V157.2C450.7,153,447.3,149.7,443.2,149.7z M288.9,464.7H119.3v-45.4
			c0-4.1-3.4-7.5-7.5-7.5c-4.1,0-7.5,3.4-7.5,7.5v52.9c0,4.1,3.4,7.5,7.5,7.5h177c-0.1-2.3-0.2-4.6-0.2-7
			C288.6,470,288.7,467.3,288.9,464.7z M423,32.3H317.3v-8.7c0-13-10.6-23.7-23.7-23.7H229c-13,0-23.7,10.6-23.7,23.7v8.7H99.7
			C84.4,32.3,72,44.8,72,60v424.3c0,15.3,12.4,27.7,27.7,27.7h194.9c-1.5-4.9-2.8-9.9-3.7-15H99.7c-7,0-12.7-5.7-12.7-12.7V60
			c0-7,5.7-12.7,12.7-12.7h73.5c-0.1,0.8-0.2,1.7-0.2,2.6v14.7h-61.2c-4.1,0-7.5,3.4-7.5,7.5v312.1c0,4.1,3.4,7.5,7.5,7.5
			c4.1,0,7.5-3.4,7.5-7.5V79.7H173v14.7c0,9.7,7.9,17.6,17.6,17.6h93.9c4.2,0,7.5-3.4,7.5-7.5c0-4.1-3.3-7.5-7.5-7.5h-93.9
			c-1.4,0-2.6-1.2-2.6-2.6V49.9c0-1.4,1.2-2.6,2.6-2.6H332c1.4,0,2.6,1.2,2.6,2.6v44.4c0,1.4-1.2,2.6-2.6,2.6h-12.5
			c-4.1,0-7.5,3.4-7.5,7.5c0,4.1,3.4,7.5,7.5,7.5H332c9.7,0,17.6-7.9,17.6-17.6V79.7h53.7v261c4.9-0.7,9.9-1.1,15-1.2V72.2
			c0-4.1-3.4-7.5-7.5-7.5h-61.2V49.9c0-0.9-0.1-1.8-0.2-2.6H423c7,0,12.7,5.7,12.7,12.7v62.1c0,4.1,3.4,7.5,7.5,7.5
			c4.2,0,7.5-3.4,7.5-7.5V60C450.7,44.8,438.2,32.3,423,32.3z M302.3,32.3h-82v-8.7c0-4.8,3.9-8.7,8.7-8.7h64.6
			c4.8,0,8.7,3.9,8.7,8.7V32.3z M119.3,464.7v-45.4c0-4.1-3.4-7.5-7.5-7.5c-4.1,0-7.5,3.4-7.5,7.5v52.9c0,4.1,3.4,7.5,7.5,7.5h177
			c-0.1-2.3-0.2-4.6-0.2-7c0-2.7,0.1-5.3,0.2-8H119.3z M384.6,464.7H362l8,8l-7,7h22.6l7-7L384.6,464.7z M403.3,402v22.6l15,15V417
			L403.3,402z M288.9,464.7H119.3v-45.4c0-4.1-3.4-7.5-7.5-7.5c-4.1,0-7.5,3.4-7.5,7.5v52.9c0,4.1,3.4,7.5,7.5,7.5h177
			c-0.1-2.3-0.2-4.6-0.2-7C288.6,470,288.7,467.3,288.9,464.7z"/>
		<path d="M354.3,434.4c-0.7-0.7-0.9-1.5-1-2h-16c0.1,5,2.1,9.8,5.7,13.3l1.7,1.7h22.6L354.3,434.4z M378.5,400h-17.3l-15,15h22.6
			l10-10c0.9-0.9,1.9-1,2.4-1c0.5,0,1.5,0.1,2.4,1l2.3,2.3C385.9,403.3,382.6,400,378.5,400z M301.8,415c2.5-5.2,5.3-10.2,8.5-15
			H144.2c-4.1,0-7.5,3.4-7.5,7.5v32.3c0,4.1,3.4,7.5,7.5,7.5H291c1-5.1,2.3-10.1,3.8-15H151.7V415H301.8z"/>
		<path d="M277.1,170.5c0,4.1,3.4,7.5,7.5,7.5h93.9c4.1,0,7.5-3.4,7.5-7.5s-3.4-7.5-7.5-7.5h-93.9
			C280.4,163,277.1,166.3,277.1,170.5z"/>
		<path d="M378.5,144.3c4.1,0,7.5-3.4,7.5-7.5s-3.4-7.5-7.5-7.5h-73.7c-4.1,0-7.5,3.4-7.5,7.5s3.4,7.5,7.5,7.5H378.5z"/>
		<path d="M284.6,211.6h93.9c4.1,0,7.5-3.4,7.5-7.5s-3.4-7.5-7.5-7.5h-93.9c-4.1,0-7.5,3.4-7.5,7.5S280.4,211.6,284.6,211.6z"/>
		<path d="M284.6,245.3h93.9c4.1,0,7.5-3.4,7.5-7.5s-3.4-7.5-7.5-7.5h-93.9c-4.1,0-7.5,3.4-7.5,7.5S280.4,245.3,284.6,245.3z"/>
		<path d="M144.2,279h234.4c4.1,0,7.5-3.4,7.5-7.5s-3.4-7.5-7.5-7.5H144.2c-4.1,0-7.5,3.4-7.5,7.5S140,279,144.2,279L144.2,279z"/>
		<path d="M144.2,312.7h234.4c4.1,0,7.5-3.4,7.5-7.5s-3.4-7.5-7.5-7.5H144.2c-4.1,0-7.5,3.4-7.5,7.5S140,312.7,144.2,312.7
			L144.2,312.7z"/>
		<path d="M144.2,346.3h153.5c4.1,0,7.5-3.4,7.5-7.5s-3.4-7.5-7.5-7.5H144.2c-4.1,0-7.5,3.4-7.5,7.5S140,346.3,144.2,346.3
			L144.2,346.3z"/>
		<path d="M252.2,129.3H144.2c-4.1,0-7.5,3.4-7.5,7.5v101c0,4.1,3.4,7.5,7.5,7.5h108.1c4.1,0,7.5-3.4,7.5-7.5v-101
			C259.7,132.7,256.4,129.3,252.2,129.3z M244.7,230.3h-93.1v-86h93.1V230.3z"/>
	</g>
</g>
<g>
	<path d="M474,472.7l27-27c3.7-3.7,5.7-8.5,5.7-13.7c0-5.2-2-10.1-5.7-13.7l-24.6-24.6c-3.7-3.7-8.5-5.7-13.7-5.7
		c-4.4,0-8.6,1.5-12,4.2c-0.6,0.5-1.2,1-1.7,1.5L435.7,407L422,420.7l-3.6-3.7L395,393.7c-1.8-1.8-4-3.3-6.3-4.2
		c-2.3-1-4.8-1.5-7.4-1.5c-5.2,0-10.1,2-13.7,5.7l-6.4,6.4l-15,15l-3.2,3.2c-3.7,3.7-5.7,8.5-5.7,13.7c0,0.1,0,0.2,0,0.4
		c0.1,5,2.1,9.8,5.7,13.3l1.7,1.7l25.3,25.3l-7,7L345.6,497l-2.6,2.6c-3.3,3.3-5.3,7.7-5.6,12.4c0,0.5-0.1,0.9-0.1,1.4
		c0,5.2,2,10,5.7,13.7l24.6,24.6c3.7,3.7,8.5,5.7,13.7,5.7c5.2,0,10.1-2,13.7-5.7l27-27l26.2,26.2c1.9,1.9,4.2,3.4,6.7,4.5
		c2.5,1,5.1,1.5,7.8,1.5c5.5,0,10.6-2.1,14.5-6l23-23c3.9-3.9,6-9,6-14.5c0-5.5-2.1-10.6-6-14.5L474,472.7z M488.9,516.5l-23,23
		c-0.8,0.9-2,1.3-3.2,1.3s-2.3-0.5-3.2-1.3l-28.7-28.7L422,502l-9.9,10l-28.3,28.4c-0.9,0.9-1.9,1-2.4,1c-0.5,0-1.5-0.1-2.4-1
		l-24.6-24.6c-0.9-0.9-1-1.9-1-2.4c0-0.3,0.1-0.8,0.3-1.4c0.1-0.3,0.4-0.7,0.7-1l14-14l17.3-17.3l7-7l-8-8l-17.3-17.3l-13-13
		c-0.7-0.7-0.9-1.5-1-2c0-0.1,0-0.3,0-0.4c0-0.5,0.1-1.5,1-2.4l14.5-14.5l10-10c0.9-0.9,1.9-1,2.4-1c0.5,0,1.5,0.1,2.4,1l2.3,2.3
		l17.3,17.3l15,15l3.6,3.6l13.7-13.7l15-15l9.6-9.6c0.9-0.9,1.9-1,2.4-1c0.5,0,1.5,0.1,2.4,1l24.6,24.6c0.9,0.9,1,1.9,1,2.4
		c0,0.5-0.1,1.5-1,2.4l-38.3,38.3l37.5,37.5c0.8,0.8,1.3,2,1.3,3.2S489.8,515.7,488.9,516.5z"/>
</g>
<g>
	<path d="M291.5,400c-2.7,4.8-5.2,9.8-7.3,15c-2.4,5.6-4.4,11.4-6.1,17.3c-1.4,4.9-2.5,9.9-3.4,15c-1,5.7-1.6,11.5-1.9,17.3h16
		c0.3-5.9,1.1-11.7,2.2-17.3c1-5.1,2.3-10.1,3.8-15c1.9-6,4.2-11.8,6.9-17.3c2.5-5.2,5.3-10.2,8.5-15c20.6-31.6,54.2-53.9,93.1-59.4
		v-16.1C355.2,330.5,314.2,359.5,291.5,400z M450.7,326.1c-4.9-1-9.9-1.7-15-2.1c-4.5-0.4-9.1-0.6-13.7-0.6c-1.2,0-2.4,0-3.6,0
		c-5.1,0.1-10.1,0.5-15,1.1c-48.1,6-89.1,35-111.8,75.5c-2.7,4.8-5.2,9.8-7.3,15c-2.4,5.6-4.4,11.4-6.1,17.3
		c-1.4,4.9-2.5,9.9-3.4,15c-1,5.7-1.6,11.5-1.9,17.3c-0.1,2.7-0.2,5.3-0.2,8c0,2.4,0,4.7,0.2,7c0.3,5.9,0.9,11.7,1.8,17.3
		c0.8,5.1,1.9,10.1,3.3,15c17.3,63.3,75.3,110,144.1,110c82.3,0,149.3-67,149.3-149.3C571.3,400.1,519.3,339.5,450.7,326.1z
		 M422,606c-59.8,0-110.6-39.6-127.4-94c-1.5-4.9-2.8-9.9-3.7-15c-1-5.7-1.7-11.4-2-17.3c-0.1-2.3-0.2-4.6-0.2-7
		c0-2.7,0.1-5.3,0.2-8c0.3-5.9,1.1-11.7,2.2-17.3c1-5.1,2.3-10.1,3.8-15c1.9-6,4.2-11.8,6.9-17.3c2.5-5.2,5.3-10.2,8.5-15
		c20.6-31.6,54.2-53.9,93.1-59.4c4.9-0.7,9.9-1.1,15-1.2c1.2,0,2.4,0,3.6,0c4.6,0,9.2,0.2,13.7,0.7c5.1,0.5,10.1,1.3,15,2.4
		c59.8,13.2,104.7,66.5,104.7,130.2C555.3,546.2,495.5,606,422,606z M291.5,400c-2.7,4.8-5.2,9.8-7.3,15c-2.4,5.6-4.4,11.4-6.1,17.3
		c-1.4,4.9-2.5,9.9-3.4,15c-1,5.7-1.6,11.5-1.9,17.3h16c0.3-5.9,1.1-11.7,2.2-17.3c1-5.1,2.3-10.1,3.8-15c1.9-6,4.2-11.8,6.9-17.3
		c2.5-5.2,5.3-10.2,8.5-15c20.6-31.6,54.2-53.9,93.1-59.4v-16.1C355.2,330.5,314.2,359.5,291.5,400z"/>
</g>
</svg>
