<?xml version="1.0" encoding="utf-8"?>
<!-- Generator: Adobe Illustrator 25.1.0, SVG Export Plug-In . SVG Version: 6.00 Build 0)  -->
<svg version="1.1" id="Layer_1" xmlns="http://www.w3.org/2000/svg" xmlns:xlink="http://www.w3.org/1999/xlink" x="0px" y="0px"
	 viewBox="0 0 560 512" style="enable-background:new 0 0 560 512;" xml:space="preserve">
<path d="M318.4,410.3v86.9c0,8.3,6.9,15.1,15.4,14.7c7.9-0.3,14.1-7.2,14.1-15.2v-86.4c0-67.4,54.5-123,121.9-122.6
	c6.7,0,13.3-0.7,19.7-2c0,0,0.1,0,0.1,0l20.5,93.1c2.6,11.8,17.6,15.6,25.5,6.5l22.1-25.4c2.3-2.7,3.6-6.1,3.6-9.7v0
	c0-13.6-16.9-19.9-25.8-9.6l-2.8,3.2c0,0-0.1,0-0.1,0l-15.2-69.1c0,0,0,0,0-0.1c12.3-7.4,22.9-17.8,30.7-30.7c4.2-6.9,2-16-4.9-20.2
	c-6.9-4.2-16-2-20.2,4.9c-11.3,18.5-30.9,29.5-52.6,29.5C386.4,258.5,318.4,326.4,318.4,410.3z M541,197.3c9.6,4,20.2-3,20.2-13.4
	v-0.4c0-5.9-3.6-11.2-9.1-13.4C491.7,144.9,449,85.1,449,15.5v-0.8C449,6.6,442.4,0,434.3,0h0c-8.1,0-14.7,6.6-14.7,14.7v0.8
	C419.6,99,471,168,541,197.3z M561.1,379.6l-14.5,115.8c-1,8.1,4.7,15.4,12.8,16.4c0,0,0,0,0,0c1,0.1,1.8-0.7,1.8-1.6l0-130.6
	C561.2,379.6,561.1,379.6,561.1,379.6z M604.8,342.6L604.8,342.6C604.8,342.7,604.9,342.7,604.8,342.6L604.8,342.6z"/>
<g>
	<path d="M71.5,85.1c-3.9,5.1-39.6,51.7-45.7,59.7c-3.2,4.1-2.4,10,1.8,13.2c4.1,3.2,10,2.4,13.2-1.8l5.7-7.5l55.6,42.5l-17.1,22.4
		c-3.2,4.1-2.4,10,1.8,13.2c4.1,3.2,10,2.4,13.2-1.8c3.2-4.1,9.1-4.9,13.2-1.8l119.5,91.5c2,1.5,4.5,2.2,7,1.9l22.5-3l11.8,9
		c9.7,7.4,22.8,7.6,32.5,1.2l34.5,25c4.1,3.2,10,2.4,13.2-1.8c3.2-4.1,2.4-10-1.8-13.2l-34.4-25c3.5-10.8,0.2-23.5-9.7-31.1
		l-11.8-9.1l-3-22.5c-0.3-2.5-1.6-4.7-3.6-6.2l-119.5-91.4c-4.1-3.1-4.9-9.1-1.8-13.2c3.2-4.1,2.4-10-1.8-13.2
		c-4.1-3.2-10-2.4-13.2,1.8l-17.1,22.4L80.7,104l5.7-7.5c3.2-4.1,2.4-10-1.8-13.2C80.6,80.2,74.7,81,71.5,85.1L71.5,85.1z
		 M285.2,307.8l-7.5-5.7l11.4-15l7.4,5.7c4.2,3.2,4.9,9.1,1.8,13.2C295.2,310.2,289.3,311,285.2,307.8z M146.8,225.6l34.3-44.8
		l14.9,11.4l-5.7,7.5c-3.2,4.1-2.4,10,1.8,13.2c4.1,3.2,10,2.4,13.2-1.8l5.7-7.5l14.9,11.4l-5.7,7.5c-3.2,4.1-2.4,10,1.8,13.2
		c4.1,3.2,10,2.4,13.2-1.8l5.7-7.5l14.9,11.4l-5.7,7.5c-3.2,4.1-2.4,10,1.8,13.2c4.1,3.2,10,2.4,13.2-1.8l5.7-7.5l4.4,3.4l2.5,18.6
		l-18.2,23.7l-18.6,2.5L146.8,225.6z M124.4,208.5c-2.6-2-5.4-3.5-8.4-4.4c7.9-10.3,27.9-36.5,36.2-47.3c1.7,2.6,3.9,5,6.5,7
		l7.5,5.7l-34.3,44.8L124.4,208.5L124.4,208.5z M57.9,133.9l11.4-14.9l55.6,42.5l-11.4,14.9L57.9,133.9z"/>
</g>
<path d="M604.8,342.6C604.8,342.6,604.8,342.6,604.8,342.6L604.8,342.6C604.8,342.6,604.8,342.6,604.8,342.6
	C604.8,342.7,604.9,342.7,604.8,342.6L604.8,342.6z"/>
</svg>
