<?xml version="1.0" encoding="utf-8"?>
<!-- Generator: Adobe Illustrator 25.1.0, SVG Export Plug-In . SVG Version: 6.00 Build 0)  -->
<svg version="1.1" id="Capa_1" xmlns="http://www.w3.org/2000/svg" xmlns:xlink="http://www.w3.org/1999/xlink" x="0px" y="0px"
	 viewBox="0 0 512 512" style="enable-background:new 0 0 512 512;" xml:space="preserve">
<g>
	<path d="M89.2,507.6c5.9,5.9,15.4,5.9,21.2,0c5.9-5.9,5.9-15.4,0-21.2l-10.6-10.6l78.9-78.9l31.8,31.8c5.9,5.9,15.4,5.9,21.2,0
		c5.9-5.9,5.9-15.4,0-21.2c-5.8-5.8-5.8-15.4,0-21.2l169.8-169.7c2.8-2.8,4.4-6.6,4.4-10.6v-36.2l16.8-16.8
		c14.1-14.1,16.6-34.8,8.8-51.2l76.1-76.1c5.9-5.9,5.9-15.4,0-21.2c-5.9-5.9-15.4-5.9-21.2,0l-76.1,76.1c-16.7-8-37.4-5-51.2,8.8
		L342.3,106h-36.2c-4,0-7.8,1.6-10.6,4.4L125.8,280.2c-5.8,5.9-15.4,5.8-21.2,0c-5.9-5.9-15.4-5.9-21.2,0c-5.9,5.9-5.9,15.4,0,21.2
		l31.8,31.8l-78.9,78.9l-10.6-10.6c-5.9-5.9-15.4-5.9-21.2,0c-5.9,5.9-5.9,15.4,0,21.2C15.8,434.2,81.9,500.3,89.2,507.6L89.2,507.6
		z M401.5,110.5c5.8,5.8,5.9,15.3,0,21.2L391,142.3L369.7,121l10.6-10.6C386.2,104.6,395.7,104.6,401.5,110.5z M312.3,136h30
		l33.7,33.7v30l-6.2,6.2l-10.6-10.6c-5.9-5.9-15.4-5.9-21.2,0s-5.9,15.4,0,21.2l10.6,10.6l-21.2,21.2l-10.6-10.6
		c-5.9-5.9-15.4-5.9-21.2,0s-5.9,15.4,0,21.2l10.6,10.6l-21.2,21.2l-10.6-10.6c-5.9-5.9-15.4-5.9-21.2,0s-5.9,15.4,0,21.2l10.6,10.6
		l-21.2,21.2l-63.7-63.7L312.3,136z M147,301.4l10.6-10.6l63.6,63.6L210.6,365c-3.7,3.7-6.6,7.9-8.8,12.4
		c-15.4-15.4-52.5-52.5-67.2-67.2C139.1,308,143.3,305,147,301.4L147,301.4z M136.4,354.4l21.2,21.2l-78.9,78.9l-21.2-21.2
		L136.4,354.4z"/>
</g>
</svg>
