<?xml version="1.0" encoding="utf-8"?>
<!-- Generator: Adobe Illustrator 25.1.0, SVG Export Plug-In . SVG Version: 6.00 Build 0)  -->
<svg version="1.1" id="Capa_1" xmlns="http://www.w3.org/2000/svg" xmlns:xlink="http://www.w3.org/1999/xlink" x="0px" y="0px"
	 viewBox="0 0 512 512" style="enable-background:new 0 0 512 512;" xml:space="preserve">
<style type="text/css">
	.st0{fill:#83C4E8;}
</style>
<g>
	<g>
		<path class="st0" d="M429.4,346.4l-30.5-36.5c-2.9,3.3-6,6.4-9.5,9.3s-7.1,5.4-10.8,7.7l30.5,36.5L429.4,346.4z"/>
	</g>
	<g>
		<path d="M106.2,175.3c0,4.1,3.4,7.5,7.5,7.5H245c4.1,0,7.5-3.4,7.5-7.5s-3.4-7.5-7.5-7.5H113.7
			C109.6,167.8,106.2,171.1,106.2,175.3z"/>
		<path d="M218,206.6H113.7c-4.1,0-7.5,3.4-7.5,7.5s3.4,7.5,7.5,7.5H218c4.1,0,7.5-3.4,7.5-7.5S222.1,206.6,218,206.6z"/>
		<path d="M218,245.4H113.7c-4.1,0-7.5,3.4-7.5,7.5c0,4.1,3.4,7.5,7.5,7.5H218c4.1,0,7.5-3.4,7.5-7.5S222.1,245.4,218,245.4
			L218,245.4z"/>
		<path d="M225.5,291.6c0-4.1-3.4-7.5-7.5-7.5H113.7c-4.1,0-7.5,3.4-7.5,7.5s3.4,7.5,7.5,7.5H218
			C222.1,299.1,225.5,295.8,225.5,291.6z"/>
		<path d="M245,322.9h-70c-4.1,0-7.5,3.4-7.5,7.5s3.4,7.5,7.5,7.5h70c4.1,0,7.5-3.4,7.5-7.5S249.1,322.9,245,322.9z"/>
		<path d="M113.7,322.9c-4.1,0-7.5,3.4-7.5,7.5s3.4,7.5,7.5,7.5H150c4.1,0,7.5-3.4,7.5-7.5s-3.4-7.5-7.5-7.5H113.7z"/>
		<path d="M113.7,376.7h184.9c4.1,0,7.5-3.4,7.5-7.5s-3.4-7.5-7.5-7.5H113.7c-4.1,0-7.5,3.4-7.5,7.5S109.6,376.7,113.7,376.7z"/>
		<path d="M298.7,143.9c4.1,0,7.5-3.4,7.5-7.5s-3.4-7.5-7.5-7.5H198c-4.1,0-7.5,3.4-7.5,7.5s3.4,7.5,7.5,7.5H298.7z"/>
		<path d="M508.8,419.2l-64.5-77.1c-2.4-2.8-5.7-4.6-9.4-4.9c-1.1-0.1-2.3,0-3.4,0.1l-23-27.5c10.4-13.7,16.8-30,18.4-47.6
			c2.2-24.6-5.3-48.6-21.1-67.5c-11.4-13.7-26-23.2-41.8-28.4V149h57.4c5.8,0,10.5-4.7,10.5-10.5V86.8c0-23.2-18.9-42-42-42H177
			c-4.1,0-7.5,3.4-7.5,7.5s3.4,7.5,7.5,7.5h180.7c-5.4,6.8-8.7,15.4-8.7,24.7v78.3c-25.3-3.9-52.2,2.7-73.3,20.4
			c-18.9,15.8-30.6,38.1-32.8,62.7s5.3,48.6,21.1,67.5s38.1,30.6,62.7,32.8c2.8,0.3,5.6,0.4,8.4,0.4c4.7,0,9.3-0.4,13.9-1.1V365
			c0,4.1,3.4,7.5,7.5,7.5s7.5-3.4,7.5-7.5v-23.3c4.4-1.5,8.7-3.2,12.8-5.4l23,27.5c-1.5,4.4-0.8,9.5,2.4,13.4l64.5,77.1
			c2.7,3.3,6.6,4.9,10.6,4.9c3.1,0,6.3-1.1,8.8-3.2l20.9-17.5C512.9,433.8,513.7,425.1,508.8,419.2L508.8,419.2z M364,84.4
			c0-12.2,9.1-22.7,21.2-24.4c0,0,0,0,0,0c0.9-0.1,1.8-0.2,2.7-0.2h2c14.9,0,27,12.1,27,27V134H364L364,84.4L364,84.4z M328.1,331.1
			c-20.6-1.8-39.2-11.6-52.5-27.5c-13.3-15.9-19.5-35.9-17.7-56.5s11.6-39.2,27.5-52.5c14.5-12.1,32.1-18,49.6-18
			c22.2,0,44.2,9.4,59.5,27.7c13.3,15.9,19.5,35.9,17.7,56.5s-11.6,39.2-27.5,52.5S348.7,332.9,328.1,331.1L328.1,331.1z
			 M477.5,443.8l-62.9-75.3l19.1-15.9l62.9,75.3L477.5,443.8z"/>
		<path d="M356.5,392.5c-4.1,0-7.5,3.4-7.5,7.5v25.2c0,14.9-12.1,27-27,27h-4.5c-14.9,0-27-12.1-27-27v-14c0-5.8-4.7-10.5-10.5-10.5
			H67.2v-314c0-14.9,12.1-27,27-27H142c4.1,0,7.5-3.4,7.5-7.5s-3.4-7.5-7.5-7.5H94.2c-23.2,0-42,18.9-42,42v314H10.5
			c-5.8,0-10.5,4.7-10.5,10.5v14c0,23.2,18.9,42,42,42H322c23.2,0,42-18.9,42-42V400C364,395.9,360.7,392.5,356.5,392.5z M42,452.3
			c-14.9,0-27-12.1-27-27v-9.5h260.5v9.5c0,10.3,3.7,19.7,9.9,27H42z"/>
		<circle cx="113.5" cy="136.5" r="7.5"/>
		<circle cx="140.5" cy="136.5" r="7.5"/>
		<circle cx="167.5" cy="136.5" r="7.5"/>
	</g>
</g>
</svg>
