<?xml version="1.0" encoding="utf-8"?>
<!-- Generator: Adobe Illustrator 25.1.0, SVG Export Plug-In . SVG Version: 6.00 Build 0)  -->
<svg version="1.1" id="Camada_1" xmlns="http://www.w3.org/2000/svg" xmlns:xlink="http://www.w3.org/1999/xlink" x="0px" y="0px"
	 viewBox="0 0 500 500" style="enable-background:new 0 0 500 500;" xml:space="preserve">
<polygon points="347.8,227.4 147.3,227.4 147.3,248.6 347.8,248.6 347.8,227.4 "/>
<polygon points="347.8,377.8 147.3,377.8 147.3,398.9 347.8,398.9 347.8,377.8 "/>
<path d="M293,290.5v14.9h-86.7v-14.9H293 M306.3,270.2H193.1c-3.9,0-7.1,3.2-7.1,7.1v41.4c0,3.9,3.2,7.1,7.1,7.1h113.1
	c3.9,0,7.1-3.2,7.1-7.1v-41.4C313.4,273.4,310.2,270.2,306.3,270.2L306.3,270.2z"/>
<path d="M272.3,334.1h-45.5c-6,0-10.9,4.9-10.9,10.9v0c0,6,4.9,10.9,10.9,10.9h45.5c6,0,10.9-4.9,10.9-10.9v0
	C283.2,339,278.3,334.1,272.3,334.1L272.3,334.1z"/>
<path d="M315.4,408.6h-45.5c-6,0-10.9,4.9-10.9,10.9v0c0,6,4.9,10.9,10.9,10.9h45.5c6,0,10.9-4.9,10.9-10.9v0
	C326.3,413.5,321.4,408.6,315.4,408.6L315.4,408.6z"/>
<path d="M330.9,78.1H250c-6,0-10.9,4.9-10.9,10.9S244,99.8,250,99.8h80.9c6,0,10.9-4.9,10.9-10.9S336.9,78.1,330.9,78.1L330.9,78.1z
	"/>
<path d="M217.8,78.1c-6,0-10.9,4.9-10.9,10.9c0,6,4.9,10.9,10.9,10.9c6,0,10.9-4.9,10.9-10.9C228.7,82.9,223.8,78.1,217.8,78.1
	L217.8,78.1z"/>
<path d="M311.9,55.4c8.6,0,15.5,7,15.5,15.5v36c0,8.6-7,15.5-15.5,15.5H187.1c-8.6,0-15.5-7-15.5-15.5v-36c0-8.6,7-15.5,15.5-15.5
	H311.9 M311.9,35H187.1c-19.8,0-35.9,16.1-35.9,35.9v36c0,19.8,16.1,35.9,35.9,35.9h124.8c19.8,0,35.9-16.1,35.9-35.9v-36
	C347.8,51.1,331.7,35,311.9,35L311.9,35z"/>
<rect x="195.7" y="142.9" width="23.9" height="31.1"/>
<path d="M357.5,256.7v169c0,20.2-16.4,36.6-36.6,36.6H179.1c-20.2,0-36.6-16.4-36.6-36.6v-169c0-50.2,40.7-90.9,90.9-90.9h9.4
	c2.8,0,5.4,1.1,7.2,3c2,2,3.2,4.8,3,7.9c-0.4,5.4-5.2,9.5-10.6,9.5h-8.9c-39,0-70.6,31.6-70.6,70.6v169c0,9,7.3,16.2,16.2,16.2
	h141.8c9,0,16.2-7.3,16.2-16.2v-169c0-29.7-18.5-55.2-44.5-65.5c-7.5-3-12.4-10.3-12.4-18.5V143c0,0,0-0.1,0.1-0.1H304
	c0,0,0.1,0,0.1,0.1v30.9c0,0,0,0,0,0.1C335.6,188.2,357.5,219.9,357.5,256.7z"/>
</svg>
